<?xml version="1.0" standalone="no"?>
<!DOCTYPE svg PUBLIC "-//W3C//DTD SVG 20010904//EN"
 "http://www.w3.org/TR/2001/REC-SVG-20010904/DTD/svg10.dtd">
<svg version="1.0" xmlns="http://www.w3.org/2000/svg"
 width="256.000000pt" height="256.000000pt" viewBox="0 0 256.000000 256.000000"
 preserveAspectRatio="xMidYMid meet">
<metadata>
Created by potrace 1.14, written by Peter Selinger 2001-2017
</metadata>
<g transform="translate(0.000000,256.000000) scale(0.100000,-0.100000)"
fill="#000000" stroke="none">
<path d="M1074 2405 c-414 -76 -752 -369 -885 -766 -47 -140 -59 -224 -55
-394 3 -151 13 -212 57 -345 23 -71 91 -211 120 -249 11 -13 19 -28 19 -33 0
-5 11 -20 25 -34 14 -14 23 -29 20 -34 -3 -5 4 -11 15 -15 11 -3 20 -10 20
-14 0 -4 10 -18 23 -31 12 -14 21 -28 19 -32 -1 -5 4 -8 11 -8 8 0 31 -19 52
-42 21 -24 34 -37 30 -29 -5 9 2 7 18 -5 25 -18 39 -43 17 -29 -5 3 -10 1 -10
-5 0 -7 8 -9 20 -5 12 4 20 2 20 -5 0 -6 4 -8 10 -5 9 6 15 -8 11 -29 -1 -5 4
-4 13 3 11 9 16 9 22 0 4 -8 3 -9 -4 -5 -8 5 -10 2 -6 -9 5 -12 9 -13 20 -4 8
6 14 7 14 2 0 -11 80 -49 94 -45 5 2 3 -5 -5 -14 -9 -12 -9 -15 -1 -10 6 4 12
2 12 -3 0 -6 5 -11 11 -11 5 0 8 4 5 8 -3 5 1 9 9 9 18 0 19 -18 2 -37 -6 -8
1 -4 17 10 16 14 26 20 23 14 -8 -14 20 -27 36 -17 7 4 8 0 3 -12 -5 -14 -4
-16 8 -6 17 14 46 4 46 -16 0 -8 5 -11 10 -8 6 4 8 10 5 15 -3 4 6 3 20 -3 14
-7 25 -19 26 -27 0 -10 3 -8 9 5 7 17 9 17 9 3 1 -10 4 -18 9 -19 49 -7 63 -5
58 8 -3 7 -1 13 4 13 6 0 10 -7 10 -15 0 -8 7 -15 16 -15 8 0 12 -5 9 -10 -3
-6 -1 -10 4 -10 6 0 11 5 11 10 0 6 12 10 26 10 14 0 23 4 20 9 -7 11 21 8 31
-4 4 -4 3 -5 -4 -1 -8 4 -11 -1 -10 -14 1 -12 5 -16 10 -11 5 5 16 7 23 4 8
-3 14 0 14 7 0 6 -4 9 -8 6 -5 -3 -9 2 -9 11 0 12 5 11 19 -7 10 -13 21 -20
25 -17 3 4 0 15 -8 24 -13 17 -13 17 4 4 16 -13 20 -13 28 0 5 9 9 10 9 2 0
-6 -4 -15 -10 -18 -5 -3 -9 -14 -9 -23 1 -15 2 -15 6 1 2 9 9 17 14 17 6 0 7
-5 3 -12 -4 -7 -3 -8 4 -4 6 4 8 14 5 24 -4 12 0 11 16 -6 18 -18 26 -21 37
-11 8 6 23 9 34 6 11 -3 18 -1 14 4 -7 11 7 11 25 0 17 -11 53 8 43 24 -3 5 3
3 13 -5 17 -14 18 -13 12 3 -5 12 -3 16 5 11 8 -5 9 -2 5 10 -4 11 -3 15 4 11
6 -4 8 -13 5 -20 -3 -8 2 -12 12 -10 9 1 23 -2 30 -8 9 -7 11 -5 6 9 -4 10
-12 25 -18 33 -9 12 -8 12 11 1 12 -8 19 -19 16 -25 -4 -5 -3 -7 2 -3 4 4 14
3 21 -3 8 -7 14 -6 20 2 4 8 3 9 -4 5 -14 -8 -14 1 -2 29 7 17 9 17 9 3 1 -10
6 -18 12 -18 6 0 9 9 6 19 -3 13 -1 18 9 14 7 -2 11 -10 8 -17 -3 -7 1 -13 9
-13 8 0 14 7 13 15 0 8 6 17 14 19 12 4 12 3 2 -5 -11 -7 -11 -10 2 -15 9 -4
15 -3 15 1 -4 26 3 34 26 28 20 -5 23 -3 18 10 -5 14 -3 15 17 4 17 -9 21 -9
15 0 -5 9 -2 10 13 6 11 -4 23 -2 27 3 3 7 0 8 -10 5 -11 -5 -14 -2 -9 10 6
17 24 17 37 1 5 -6 6 -2 3 9 -5 13 -2 17 9 12 8 -3 15 -1 15 5 0 6 5 7 10 4 6
-4 7 -11 4 -17 -5 -7 -2 -8 5 -3 10 6 10 10 -1 22 -11 10 -21 11 -41 4 -15 -6
-27 -8 -27 -6 0 15 53 24 73 14 l22 -12 -20 24 c-11 13 -16 21 -11 17 5 -4 16
-2 25 5 14 11 14 10 2 -5 -7 -10 -11 -18 -9 -18 11 0 68 32 73 41 4 5 9 8 13
6 4 -2 17 7 29 20 12 13 18 23 13 23 -6 0 -10 4 -10 9 0 5 10 7 22 3 19 -5 20
-4 7 10 -7 9 -18 13 -23 10 -5 -3 -6 0 -2 7 6 9 14 8 33 -4 24 -16 24 -16 12
7 -11 20 -10 21 3 11 10 -9 17 -10 25 -2 12 12 6 42 -7 34 -5 -3 -6 5 -2 17 5
20 6 20 12 3 9 -24 39 -29 33 -5 -3 10 1 21 8 25 7 5 10 4 5 -3 -3 -6 -2 -13
3 -16 5 -4 8 2 7 11 -2 10 4 24 13 31 14 12 14 13 -1 8 -10 -3 -18 -1 -18 4 0
6 12 10 26 10 15 0 23 4 19 11 -4 6 -14 8 -24 4 -12 -5 -13 -3 -5 5 9 9 18 9
35 -1 22 -11 23 -11 10 5 -12 14 -12 19 -1 29 8 8 11 8 7 1 -4 -7 1 -18 11
-25 15 -13 16 -12 4 3 -11 14 -10 18 7 30 20 14 20 14 0 26 -22 14 -17 32 9
31 14 0 13 -2 -3 -9 -21 -9 -21 -9 6 -15 20 -4 19 23 -2 36 -12 7 -12 9 1 9 9
0 22 -6 29 -12 10 -11 11 -9 5 6 -6 15 -4 17 6 11 8 -5 11 -4 6 3 -3 6 -2 13
3 16 5 4 8 14 6 24 -2 9 -4 21 -4 25 -1 5 -6 5 -13 1 -7 -4 -8 -3 -4 4 5 9 13
9 26 2 16 -9 18 -8 14 5 -5 11 -2 14 12 9 15 -5 16 -4 5 4 -8 6 -20 8 -28 5
-16 -6 -17 6 -2 27 9 13 10 13 6 -1 -7 -22 29 -14 38 8 4 13 3 13 -9 4 -11
-10 -14 -7 -12 13 1 17 4 21 13 15 7 -7 14 -6 19 2 5 8 3 9 -6 4 -9 -6 -10 -2
-5 15 5 15 3 20 -3 16 -6 -3 -13 -2 -16 3 -4 5 5 8 19 6 14 -1 23 0 20 3 -3 3
3 14 12 24 12 13 13 18 4 16 -7 -2 -16 3 -18 10 -3 6 0 12 6 12 6 0 11 5 11
11 0 5 -4 8 -9 4 -5 -3 -13 0 -17 6 -5 8 -3 9 6 4 10 -6 12 -4 6 10 -6 18 -6
18 12 2 15 -14 19 -14 19 -2 0 8 -5 11 -10 8 -6 -4 -8 0 -4 10 3 9 3 16 -1 14
-4 -1 -8 3 -9 8 -1 6 8 9 20 7 16 -2 18 0 8 6 -15 11 -5 56 11 46 5 -3 3 8 -6
24 -20 40 -20 65 0 32 10 -17 13 -18 8 -5 -3 11 -7 25 -7 32 0 7 -3 12 -6 11
-19 -2 -21 4 -7 24 11 15 12 26 5 40 -5 10 -7 23 -4 28 13 21 14 52 2 47 -10
-3 -13 7 -13 38 1 37 3 42 16 32 13 -10 13 -10 2 5 -8 10 -10 23 -6 30 6 10 5
11 -7 1 -17 -14 -17 -14 -20 52 0 19 -6 35 -12 35 -7 0 -5 5 3 10 8 5 10 10 4
10 -7 0 -14 10 -17 23 -2 12 -8 31 -11 42 -5 14 -3 13 9 -5 12 -18 14 -19 9
-5 -3 11 -7 25 -7 32 0 7 -5 11 -11 10 -6 -1 -10 4 -9 11 2 6 -2 12 -7 12 -6
0 -10 8 -10 18 0 10 -6 24 -12 30 -10 10 -10 17 1 35 13 19 12 21 -1 10 -19
-16 -32 -5 -16 14 9 11 8 13 -3 11 -8 -2 -13 3 -12 10 2 6 -1 12 -6 12 -5 0
-14 14 -21 30 -7 17 -16 30 -21 30 -5 0 -9 5 -9 12 0 6 -11 26 -25 43 -13 18
-21 36 -17 40 4 5 1 5 -5 1 -8 -4 -13 -2 -13 5 0 21 -194 203 -269 253 -127
83 -262 141 -406 173 -92 21 -347 25 -441 8z m1361 -1154 c3 -5 2 -12 -3 -15
-5 -3 -9 1 -9 9 0 17 3 19 12 6z m3 -129 c2 -7 -1 -12 -8 -12 -6 0 -9 4 -6 9
4 5 1 12 -4 14 -6 3 -5 4 2 3 6 -1 14 -8 16 -14z m-15 -37 c-3 -9 -8 -14 -10
-11 -3 3 -2 9 2 15 9 16 15 13 8 -4z m-23 -155 c-8 -5 -19 -10 -25 -10 -5 0
-3 5 5 10 8 5 20 10 25 10 6 0 3 -5 -5 -10z m-90 -190 c0 -5 -5 -10 -11 -10
-5 0 -7 5 -4 10 3 6 8 10 11 10 2 0 4 -4 4 -10z m10 -24 c-10 -13 -40 -12 -40
1 0 3 7 3 15 0 8 -4 17 -2 20 3 4 6 9 10 12 10 3 0 0 -6 -7 -14z m-58 -90 c7
4 8 2 4 -5 -9 -13 -26 -5 -25 12 0 9 2 8 6 -1 2 -6 10 -9 15 -6z m-101 -109
c-10 -9 -11 -8 -5 6 3 10 9 15 12 12 3 -3 0 -11 -7 -18z m-31 -71 c0 -3 -4 -8
-10 -11 -5 -3 -10 -1 -10 4 0 6 5 11 10 11 6 0 10 -2 10 -4z m-95 -45 c-3 -5
-1 -13 5 -16 16 -10 -50 -64 -73 -59 -11 2 -22 6 -26 10 -3 4 1 5 9 2 8 -3 21
4 28 16 12 20 13 20 6 -4 -6 -22 -5 -23 9 -11 9 7 14 17 11 22 -3 5 0 8 8 7 7
-2 14 4 14 12 3 26 4 30 10 30 3 0 3 -4 -1 -9z m-208 -163 c-3 -8 -6 -5 -6 6
-1 11 2 17 5 13 3 -3 4 -12 1 -19z m-20 -3 c0 -8 -4 -12 -9 -9 -5 3 -6 10 -3
15 9 13 12 11 12 -6z m-37 -15 c0 -5 -5 -10 -11 -10 -5 0 -7 5 -4 10 3 6 8 10
11 10 2 0 4 -4 4 -10z m-142 -65 c-3 -3 -9 2 -12 12 -6 14 -5 15 5 6 7 -7 10
-15 7 -18z m-559 -19 c11 -14 6 -15 -27 -7 -4 1 8 21 12 21 2 0 9 -6 15 -14z
m417 -25 c-5 -8 -13 -8 -27 0 -12 6 -18 13 -15 16 3 3 13 0 23 -8 15 -13 16
-12 9 6 -5 15 -4 17 5 8 6 -6 8 -16 5 -22z m-316 14 c0 -7 -30 -13 -34 -7 -3
4 4 9 15 9 10 1 19 0 19 -2z m203 -8 c-4 -6 0 -8 8 -5 8 3 22 9 32 13 11 5 17
3 17 -6 0 -7 -3 -9 -7 -6 -3 4 -16 1 -28 -7 -19 -12 -23 -12 -32 3 -9 14 -8
18 3 18 7 0 10 -5 7 -10z"/>
<path d="M2415 1500 c-3 -5 -1 -10 4 -10 6 0 11 5 11 10 0 6 -2 10 -4 10 -3 0
-8 -4 -11 -10z"/>
<path d="M2430 1360 c0 -5 5 -10 11 -10 5 0 7 5 4 10 -3 6 -8 10 -11 10 -2 0
-4 -4 -4 -10z"/>
<path d="M2444 1289 c-3 -6 2 -18 12 -27 17 -16 17 -16 5 0 -7 9 -10 22 -6 28
3 5 4 10 1 10 -3 0 -8 -5 -12 -11z"/>
<path d="M2440 1215 c-11 -13 -10 -14 4 -9 9 3 16 10 16 15 0 13 -6 11 -20 -6z"/>
<path d="M730 246 c0 -2 8 -10 18 -17 15 -13 16 -12 3 4 -13 16 -21 21 -21 13z"/>
<path d="M910 162 c0 -5 7 -9 15 -9 8 0 12 4 9 9 -7 10 -24 10 -24 0z"/>
<path d="M974 136 c1 -8 5 -18 8 -22 4 -3 5 1 4 10 -1 8 -5 18 -8 22 -4 3 -5
-1 -4 -10z"/>
</g>
</svg>
