<svg version="1.1" xmlns="http://www.w3.org/2000/svg" viewBox="0 0 836.5245677813136 392.1911805123103" width="836.5245677813136" height="392.1911805123103">
  <!-- svg-source:excalidraw -->
  
  <defs>
    <style class="style-fonts">
      @font-face {
        font-family: "Virgil";
        src: url("https://excalidraw.com/Virgil.woff2");
      }
      @font-face {
        font-family: "Cascadia";
        src: url("https://excalidraw.com/Cascadia.woff2");
      }
      @font-face {
        font-family: "Assistant";
        src: url("https://excalidraw.com/Assistant-Regular.woff2");
      }
    </style>
    
  </defs>
  <rect x="0" y="0" width="836.5245677813136" height="392.1911805123103" fill="#ffffff"></rect><g stroke-linecap="round" transform="translate(11.5 96.19118051231032) rotate(0 85.5 22.5)"><path d="M11.25 0 C59.21 -1.44, 107.86 -1.08, 159.75 0 M11.25 0 C61.7 1.03, 112.49 0.89, 159.75 0 M159.75 0 C168.09 1, 171.61 3.29, 171 11.25 M159.75 0 C167.67 0.16, 172.53 3.36, 171 11.25 M171 11.25 C169.21 17.76, 170.87 25.53, 171 33.75 M171 11.25 C170.9 16.3, 170.76 21.93, 171 33.75 M171 33.75 C170.32 41.62, 165.94 43.74, 159.75 45 M171 33.75 C168.77 40.8, 166.16 46.56, 159.75 45 M159.75 45 C128 43.38, 97.33 44.15, 11.25 45 M159.75 45 C109.56 43.9, 60.11 44.03, 11.25 45 M11.25 45 C3.43 44.58, 0.53 42.57, 0 33.75 M11.25 45 C5.7 46.13, -0.5 39.11, 0 33.75 M0 33.75 C-0.96 25.29, -0.3 18.29, 0 11.25 M0 33.75 C-0.44 26.08, -0.85 17.22, 0 11.25 M0 11.25 C-1.05 4.92, 4.83 -1.7, 11.25 0 M0 11.25 C-1.99 3.38, 3.81 1.92, 11.25 0" stroke="#1e1e1e" stroke-width="2" fill="none"></path></g><g stroke-linecap="round" transform="translate(13 256.6911805123103) rotate(0 85.5 22.5)"><path d="M11.25 0 C58.18 -1.84, 105.34 1.83, 159.75 0 M11.25 0 C52.68 -1, 96.83 -1.75, 159.75 0 M159.75 0 C165.59 -0.72, 170.47 2.35, 171 11.25 M159.75 0 C167.27 1.44, 169.87 1.64, 171 11.25 M171 11.25 C169.24 18.05, 169.97 24.19, 171 33.75 M171 11.25 C171.48 16.99, 170.08 24.9, 171 33.75 M171 33.75 C172.05 41.98, 168.61 44.06, 159.75 45 M171 33.75 C173 42.38, 166.84 42.78, 159.75 45 M159.75 45 C113.8 44, 67.26 43.86, 11.25 45 M159.75 45 C115.31 45.36, 69.79 44.23, 11.25 45 M11.25 45 C4.77 45.18, -1.39 41.07, 0 33.75 M11.25 45 C5.55 43.11, 1.56 39.39, 0 33.75 M0 33.75 C0.16 28.56, -1.7 18.78, 0 11.25 M0 33.75 C-0.04 24.79, 1.03 16.67, 0 11.25 M0 11.25 C-1.53 2.23, 5.57 1.89, 11.25 0 M0 11.25 C0.38 4.54, 2.76 -1.32, 11.25 0" stroke="#1e1e1e" stroke-width="2" fill="none"></path></g><g stroke-linecap="round" transform="translate(10 181.69118051231032) rotate(0 85.5 22.5)"><path d="M11.25 0 C60.97 2.21, 110.78 1.17, 159.75 0 M11.25 0 C68.15 0.97, 125.06 1.24, 159.75 0 M159.75 0 C168.5 -0.98, 169.16 3.99, 171 11.25 M159.75 0 C168.08 0.91, 168.88 3.5, 171 11.25 M171 11.25 C169.98 17, 172.04 20.39, 171 33.75 M171 11.25 C171.43 16.83, 170.6 21.92, 171 33.75 M171 33.75 C171.98 40.89, 165.32 45.11, 159.75 45 M171 33.75 C172.72 41.72, 166.53 43.49, 159.75 45 M159.75 45 C130.55 45.23, 98.54 45.43, 11.25 45 M159.75 45 C121.42 45.07, 82.83 46.54, 11.25 45 M11.25 45 C2.1 46.36, -1.62 41.19, 0 33.75 M11.25 45 C5.17 43.15, 0.34 42.97, 0 33.75 M0 33.75 C-0.58 27.66, -0.08 22.36, 0 11.25 M0 33.75 C-0.64 25.79, 1.07 16.18, 0 11.25 M0 11.25 C0.68 2.89, 2.6 0.74, 11.25 0 M0 11.25 C-2.01 5.59, 3.66 0.93, 11.25 0" stroke="#1e1e1e" stroke-width="2" fill="none"></path></g><g stroke-linecap="round" transform="translate(13.5 339.1911805123103) rotate(0 84.5 21.5)"><path d="M10.75 0 C38.65 0.98, 70.93 0.4, 158.25 0 M10.75 0 C43.96 -0.46, 78.07 -1.92, 158.25 0 M158.25 0 C166.33 -0.81, 169.3 3.95, 169 10.75 M158.25 0 C165.31 2.22, 169.3 3.08, 169 10.75 M169 10.75 C169.24 17.61, 167.75 21.68, 169 32.25 M169 10.75 C168.95 18.84, 168.9 27.79, 169 32.25 M169 32.25 C169.9 40.63, 167.14 44.41, 158.25 43 M169 32.25 C168.49 40.6, 163.77 40.74, 158.25 43 M158.25 43 C118.34 45.26, 77.95 43.03, 10.75 43 M158.25 43 C106.88 44.02, 53.73 43.75, 10.75 43 M10.75 43 C5.33 43.95, 1.14 40.98, 0 32.25 M10.75 43 C1.71 42.87, -0.4 39.18, 0 32.25 M0 32.25 C-0.95 28.65, -0.94 21.66, 0 10.75 M0 32.25 C-0.02 26.95, -0.05 20.6, 0 10.75 M0 10.75 C-1.44 2.8, 4.42 0.88, 10.75 0 M0 10.75 C-0.03 5.53, 1.93 -1.09, 10.75 0" stroke="#1e1e1e" stroke-width="2" fill="none"></path></g><g stroke-linecap="round" transform="translate(306.5 110.19118051231032) rotate(0 71 114.5)"><path d="M32 0 C61.1 2.02, 88.27 1.18, 110 0 M32 0 C50.4 0.18, 66.66 -1.09, 110 0 M110 0 C130.1 1.92, 143.1 10.98, 142 32 M110 0 C131.78 1.07, 141.85 9, 142 32 M142 32 C144.19 93.1, 142.4 157.54, 142 197 M142 32 C142.2 97.34, 141.4 162.9, 142 197 M142 197 C142.05 219.12, 131.01 229.29, 110 229 M142 197 C140.21 220.16, 129.45 229.7, 110 229 M110 229 C88.39 228.07, 68.8 228.45, 32 229 M110 229 C83.03 229.01, 57.78 228.95, 32 229 M32 229 C12.01 229.12, -1.3 216.46, 0 197 M32 229 C10.44 229.44, -0.2 217.88, 0 197 M0 197 C-1.28 157.14, -0.42 113.36, 0 32 M0 197 C0.68 136.65, 1.22 78.28, 0 32 M0 32 C0.7 10.89, 12.18 1.27, 32 0 M0 32 C-0.86 10.42, 11.36 1.01, 32 0" stroke="#1e1e1e" stroke-width="2" fill="none"></path></g><g stroke-linecap="round" transform="translate(529.5 79.19118051231032) rotate(0 144.5 149)"><path d="M32 0 C111.97 -0.19, 189.8 0.99, 257 0 M32 0 C86.15 0.86, 137.95 0.79, 257 0 M257 0 C278.67 -0.08, 289.43 11.24, 289 32 M257 0 C279.09 -1.43, 286.93 10.63, 289 32 M289 32 C288.93 88.39, 289 140.33, 289 266 M289 32 C289.06 79.75, 288.84 125.87, 289 266 M289 266 C290.78 287.94, 279.83 297.12, 257 298 M289 266 C287.09 289.02, 276.22 296.22, 257 298 M257 298 C208.89 299.12, 158.9 297.67, 32 298 M257 298 C167.87 297.99, 80.17 297.93, 32 298 M32 298 C11.77 299.66, -1.03 287.85, 0 266 M32 298 C8.4 300.05, -0.98 288.68, 0 266 M0 266 C-0.39 174.01, -1.94 82.39, 0 32 M0 266 C-0.36 197.44, -0.26 129.74, 0 32 M0 32 C1.88 9.6, 11.29 -1.13, 32 0 M0 32 C2.06 10.58, 10.26 -1.91, 32 0" stroke="#1e1e1e" stroke-width="2" fill="none"></path></g><g transform="translate(27.5 14.191180512310325) rotate(0 77.11078629632937 19.500000000000014)"><text x="0" y="27.331200000000024" font-family="Virgil, Segoe UI Emoji" font-size="31.200000000000028px" fill="#1e1e1e" text-anchor="start" style="white-space: pre;" direction="ltr" dominant-baseline="alphabetic">Hash Keys</text></g><g transform="translate(49.5 198.19118051231032) rotate(0 26.238114215452583 12.5)"><text x="0" y="17.52" font-family="Virgil, Segoe UI Emoji" font-size="20px" fill="#1e1e1e" text-anchor="start" style="white-space: pre;" direction="ltr" dominant-baseline="alphabetic">B.K.B</text></g><g transform="translate(60.5 267.1911805123103) rotate(0 27.161273307806255 12.5)"><text x="0" y="17.52" font-family="Virgil, Segoe UI Emoji" font-size="20px" fill="#1e1e1e" text-anchor="start" style="white-space: pre;" direction="ltr" dominant-baseline="alphabetic">M.K.D</text></g><g transform="translate(64.5 347.1911805123103) rotate(0 26.55513913078545 12.5)"><text x="0" y="17.52" font-family="Virgil, Segoe UI Emoji" font-size="20px" fill="#1e1e1e" text-anchor="start" style="white-space: pre;" direction="ltr" dominant-baseline="alphabetic">Dipak</text></g><g transform="translate(30.5 109.19118051231032) rotate(0 46.25 12.5)"><text x="0" y="17.52" font-family="Virgil, Segoe UI Emoji" font-size="20px" fill="#1e1e1e" text-anchor="start" style="white-space: pre;" direction="ltr" dominant-baseline="alphabetic">  Satyam</text></g><g stroke-linecap="round"><g transform="translate(182.5 118.19118051231032) rotate(0 62.5 17.5)"><path d="M-0.96 -0.66 C19.86 5.1, 103.64 28.28, 124.47 34.07 M0.74 1.61 C21.39 7.53, 102.3 29.57, 123.24 35.12" stroke="#1e1e1e" stroke-width="2" fill="none"></path></g></g><mask></mask><g stroke-linecap="round"><g transform="translate(182.5 210.19118051231032) rotate(0 62.5 -0.5)"><path d="M-0.57 -0.78 C20.27 -1.04, 105.09 -1.4, 125.95 -1.58 M1.34 1.42 C22.01 1.32, 105.12 0.05, 125.5 -0.35" stroke="#1e1e1e" stroke-width="2" fill="none"></path></g></g><mask></mask><g stroke-linecap="round"><g transform="translate(185.5 284.1911805123103) rotate(0 61 -11.5)"><path d="M0.03 -1.15 C20.21 -4.62, 100.44 -18.18, 120.96 -21.81 M-1.41 0.86 C19.13 -2.83, 102.39 -19.57, 123.12 -23.31" stroke="#1e1e1e" stroke-width="2" fill="none"></path></g></g><mask></mask><g stroke-linecap="round"><g transform="translate(182.5 364.1911805123103) rotate(0 62.5 -20.5)"><path d="M0.29 -0.7 C21.39 -7.78, 105.04 -35.17, 125.91 -41.85 M-1.02 1.55 C20.06 -5.46, 104.44 -33.94, 125.44 -40.76" stroke="#1e1e1e" stroke-width="2" fill="none"></path></g></g><mask></mask><g stroke-linecap="round"><g transform="translate(308.5 152.19118051231032) rotate(0 70 -1.5)"><path d="M-0.16 -0.47 C23.14 -1.05, 115.98 -1.93, 139.41 -2.43 M-1.7 -1.76 C22.03 -2.18, 118.21 -4.14, 141.81 -4.25" stroke="#1e1e1e" stroke-width="2" fill="none"></path></g></g><mask></mask><g stroke-linecap="round"><g transform="translate(309.5 208.19118051231032) rotate(0 68.5 -1.5)"><path d="M0.55 1.13 C23.27 0.96, 113.74 -1.25, 136.58 -1.99 M-0.61 0.68 C21.88 0.28, 112.45 -3.11, 135.4 -3.58" stroke="#1e1e1e" stroke-width="2" fill="none"></path></g></g><mask></mask><g stroke-linecap="round"><g transform="translate(308.5 260.1911805123103) rotate(0 69.5 3)"><path d="M0.01 0.42 C23.05 1.39, 115.11 5.21, 138.18 6.24 M-1.45 -0.41 C21.98 0.14, 117.33 3.42, 140.45 4.24" stroke="#1e1e1e" stroke-width="2" fill="none"></path></g></g><mask></mask><g stroke-linecap="round"><g transform="translate(309.5 323.1911805123103) rotate(0 69.5 -3.5)"><path d="M0.36 1.18 C23.78 -0.09, 116.62 -5.28, 139.73 -6.75 M-0.91 0.75 C22.49 -0.97, 115.96 -7.51, 139.17 -8.74" stroke="#1e1e1e" stroke-width="2" fill="none"></path></g></g><mask></mask><g transform="translate(307.5 10) rotate(0 58.08504541295946 37.09559025615515)"><text x="0" y="25.996589651513528" font-family="Virgil, Segoe UI Emoji" font-size="29.676472204924117px" fill="#1e1e1e" text-anchor="start" style="white-space: pre;" direction="ltr" dominant-baseline="alphabetic">Hash</text><text x="0" y="63.09217990766868" font-family="Virgil, Segoe UI Emoji" font-size="29.676472204924117px" fill="#1e1e1e" text-anchor="start" style="white-space: pre;" direction="ltr" dominant-baseline="alphabetic">Function</text></g><g transform="translate(354.5 166.45332488150723) rotate(0 26.795470981834114 67.86892781540158)"><text x="0" y="95.12508922606685" font-family="Virgil, Segoe UI Emoji" font-size="108.59028450464251px" fill="#1e1e1e" text-anchor="start" style="white-space: pre;" direction="ltr" dominant-baseline="alphabetic">λ</text></g><g transform="translate(579.5 19.191180512310325) rotate(0 69.44402104382652 22.5)"><text x="0" y="31.535999999999994" font-family="Virgil, Segoe UI Emoji" font-size="35.999999999999986px" fill="#1e1e1e" text-anchor="start" style="white-space: pre;" direction="ltr" dominant-baseline="alphabetic">Storage</text></g><g stroke-linecap="round"><g transform="translate(589.5 81.19118051231032) rotate(0 0 147.5)"><path d="M-0.2 0.61 C0.1 49.47, 0.88 245.19, 1.08 294.26 M-1.76 -0.12 C-1.46 49.39, 0.28 245.99, 0.7 295.41" stroke="#1e1e1e" stroke-width="2" fill="none"></path></g></g><mask></mask><g stroke-linecap="round"><g transform="translate(530.5 126.19118051231032) rotate(0 146 0)"><path d="M0.7 1.1 C49.55 1.39, 244.43 0.89, 293.11 0.63 M-0.4 0.64 C48.39 0.66, 243.94 -1.17, 292.74 -1.17" stroke="#1e1e1e" stroke-width="2" fill="none"></path></g></g><mask></mask><g stroke-linecap="round"><g transform="translate(529.5 182.19118051231032) rotate(0 144 0)"><path d="M0.82 -1.08 C48.63 -1.24, 239.36 -0.27, 287.14 -0.09 M-0.21 0.96 C47.95 0.93, 241.62 1.34, 289.4 1.4" stroke="#1e1e1e" stroke-width="2" fill="none"></path></g></g><mask></mask><g stroke-linecap="round"><g transform="translate(527.5 231.19118051231032) rotate(0 144.5 1.5)"><path d="M0.26 -0.06 C45.74 -0.1, 224.86 -0.17, 272.82 0.15 C320.78 0.46, 285.13 1.48, 288.01 1.82 M-1.06 -1.14 C44.33 -0.99, 223.73 1.15, 272.3 1.76 C320.87 2.37, 287.89 2.34, 290.38 2.52" stroke="#1e1e1e" stroke-width="2" fill="none"></path></g></g><mask></mask><g stroke-linecap="round"><g transform="translate(528.5 274.1911805123103) rotate(0 144 3.5)"><path d="M0.65 1.18 C48.58 2.31, 239.83 5.6, 287.83 6.61 M-0.47 0.75 C47.27 2.08, 238.68 6.63, 286.8 7.94" stroke="#1e1e1e" stroke-width="2" fill="none"></path></g></g><mask></mask><g stroke-linecap="round"><g transform="translate(530.5 336.1911805123103) rotate(0 144.5 -1)"><path d="M0.61 -0.85 C48.86 -1.37, 240.74 -2.97, 288.86 -2.99 M-0.53 1.33 C47.61 0.9, 239.63 -1.29, 287.83 -1.98" stroke="#1e1e1e" stroke-width="2" fill="none"></path></g></g><mask></mask><g transform="translate(548.5 101.19118051231032) rotate(0 13.802678298716387 12.5)"><text x="0" y="17.52" font-family="Virgil, Segoe UI Emoji" font-size="20px" fill="#1e1e1e" text-anchor="start" style="white-space: pre;" direction="ltr" dominant-baseline="alphabetic">00</text></g><g transform="translate(554.5 155.19118051231032) rotate(0 9.619803189478716 12.5)"><text x="0" y="17.52" font-family="Virgil, Segoe UI Emoji" font-size="20px" fill="#1e1e1e" text-anchor="start" style="white-space: pre;" direction="ltr" dominant-baseline="alphabetic">01</text></g><g transform="translate(554.5 207.19118051231032) rotate(0 14.04286484896943 12.5)"><text x="0" y="17.52" font-family="Virgil, Segoe UI Emoji" font-size="20px" fill="#1e1e1e" text-anchor="start" style="white-space: pre;" direction="ltr" dominant-baseline="alphabetic">02</text></g><g transform="translate(548.5 248.19118051231032) rotate(0 13.737247702952118 12.5)"><text x="0" y="17.52" font-family="Virgil, Segoe UI Emoji" font-size="20px" fill="#1e1e1e" text-anchor="start" style="white-space: pre;" direction="ltr" dominant-baseline="alphabetic">03</text></g><g transform="translate(552.5 303.1911805123103) rotate(0 13.326455524414314 12.5)"><text x="0" y="17.52" font-family="Virgil, Segoe UI Emoji" font-size="20px" fill="#1e1e1e" text-anchor="start" style="white-space: pre;" direction="ltr" dominant-baseline="alphabetic">04</text></g><g transform="translate(554.5 356.1911805123103) rotate(0 13.09652781267448 12.5)"><text x="0" y="17.52" font-family="Virgil, Segoe UI Emoji" font-size="20px" fill="#1e1e1e" text-anchor="start" style="white-space: pre;" direction="ltr" dominant-baseline="alphabetic">05</text></g><g transform="translate(601.5 160.19118051231032) rotate(0 94.63168880079843 12.5)"><text x="0" y="17.52" font-family="Virgil, Segoe UI Emoji" font-size="20px" fill="#1e1e1e" text-anchor="start" style="white-space: pre;" direction="ltr" dominant-baseline="alphabetic">663-23424-234AF</text></g><g transform="translate(596.5 254.19118051231032) rotate(0 97.63955714896804 12.5)"><text x="0" y="17.52" font-family="Virgil, Segoe UI Emoji" font-size="20px" fill="#1e1e1e" text-anchor="start" style="white-space: pre;" direction="ltr" dominant-baseline="alphabetic">23434-234-FDSDD</text></g><g stroke-linecap="round"><g transform="translate(449.5 150.19118051231032) rotate(0 40.5 52)"><path d="M-0.6 -0.71 C12.89 16.43, 67.55 85.76, 80.99 103.29 M1.29 1.54 C14.61 18.78, 66.51 87.65, 80.03 104.45" stroke="#1e1e1e" stroke-width="2" fill="none"></path></g><g transform="translate(449.5 150.19118051231032) rotate(0 40.5 52)"><path d="M58.88 91.12 C64.26 95.31, 70.76 97.81, 80.03 104.45 M58.88 91.12 C66.55 95.79, 72.84 99.75, 80.03 104.45" stroke="#1e1e1e" stroke-width="2" fill="none"></path></g><g transform="translate(449.5 150.19118051231032) rotate(0 40.5 52)"><path d="M72.39 80.64 C73.66 87.99, 76 93.72, 80.03 104.45 M72.39 80.64 C75.47 88.87, 77.21 96.37, 80.03 104.45" stroke="#1e1e1e" stroke-width="2" fill="none"></path></g></g><mask></mask><g stroke-linecap="round"><g transform="translate(450.5 265.1911805123103) rotate(0 39.5 -53.5)"><path d="M0.31 1.11 C13.45 -16.34, 66.02 -87.67, 79.22 -105.86 M-0.99 0.65 C11.99 -17, 65.06 -89.4, 78.39 -107.39" stroke="#1e1e1e" stroke-width="2" fill="none"></path></g><g transform="translate(450.5 265.1911805123103) rotate(0 39.5 -53.5)"><path d="M71.34 -83.4 C75.75 -90.94, 78.11 -98.38, 78.39 -107.39 M71.34 -83.4 C72.44 -88.76, 73.6 -94.06, 78.39 -107.39" stroke="#1e1e1e" stroke-width="2" fill="none"></path></g><g transform="translate(450.5 265.1911805123103) rotate(0 39.5 -53.5)"><path d="M57.57 -93.54 C66.41 -97.78, 73.3 -101.88, 78.39 -107.39 M57.57 -93.54 C61.61 -96.81, 65.69 -99.95, 78.39 -107.39" stroke="#1e1e1e" stroke-width="2" fill="none"></path></g></g><mask></mask><g stroke-linecap="round"><g transform="translate(448.5 317.1911805123103) rotate(0 42 20.5)"><path d="M0.28 -0.16 C14.28 6.45, 70.65 33, 84.42 39.95 M-1.03 -1.28 C12.81 5.41, 69.32 34.14, 83.7 40.94" stroke="#1e1e1e" stroke-width="2" fill="none"></path></g><g transform="translate(448.5 317.1911805123103) rotate(0 42 20.5)"><path d="M58.84 38.22 C66.89 39.78, 73.7 38.13, 83.7 40.94 M58.84 38.22 C68.03 38.88, 76.41 40.66, 83.7 40.94" stroke="#1e1e1e" stroke-width="2" fill="none"></path></g><g transform="translate(448.5 317.1911805123103) rotate(0 42 20.5)"><path d="M66.4 22.89 C71.97 29.58, 76.25 33.06, 83.7 40.94 M66.4 22.89 C73.08 28.85, 78.85 35.95, 83.7 40.94" stroke="#1e1e1e" stroke-width="2" fill="none"></path></g></g><mask></mask></svg>